<?xml version="1.0" encoding="UTF-8"?><svg id="Layer_1" xmlns="http://www.w3.org/2000/svg" viewBox="0 0 19.72 26.68"><defs><style>.cls-1{fill:#d8c691;}.cls-2{fill:#24396d;}</style></defs><rect class="cls-2" width="19.72" height="26.68"/><path class="cls-1" d="M10.7,36.85l1.84-1.79c.45-.44.45-1.16.01-1.6l-1.82-1.82c-.43-.44-1.14-.44-1.58-.01l-1.84,1.79c-.45.44-.45,1.16-.01,1.6l1.82,1.82c.43.44,1.14.44,1.58.01ZM10.7,36.85l1.84-1.79c.45-.44.45-1.16.01-1.6l-1.82-1.82c-.43-.44-1.14-.44-1.58-.01l-1.84,1.79c-.45.44-.45,1.16-.01,1.6l1.82,1.82c.43.44,1.14.44,1.58.01ZM10.7-13.66l1.84-1.79c.45-.44.45-1.16.01-1.6l-1.82-1.82c-.43-.43-1.14-.44-1.58-.01l-1.84,1.79c-.45.44-.45,1.16-.01,1.6l1.82,1.82c.43.43,1.14.44,1.58.01ZM10.7,11.59l1.84-1.79c.45-.44.45-1.16.01-1.6l-1.82-1.82c-.43-.44-1.14-.44-1.58-.01l-1.84,1.79c-.45.44-.45,1.16-.01,1.6l1.82,1.82c.43.44,1.14.44,1.58.01ZM10.7,36.85l1.84-1.79c.45-.44.45-1.16.01-1.6l-1.82-1.82c-.43-.44-1.14-.44-1.58-.01l-1.84,1.79c-.45.44-.45,1.16-.01,1.6l1.82,1.82c.43.44,1.14.44,1.58.01ZM10.7,36.85l1.84-1.79c.45-.44.45-1.16.01-1.6l-1.82-1.82c-.43-.44-1.14-.44-1.58-.01l-1.84,1.79c-.45.44-.45,1.16-.01,1.6l1.82,1.82c.43.44,1.14.44,1.58.01ZM10.7,11.59l1.84-1.79c.45-.44.45-1.16.01-1.6l-1.82-1.82c-.43-.44-1.14-.44-1.58-.01l-1.84,1.79c-.45.44-.45,1.16-.01,1.6l1.82,1.82c.43.44,1.14.44,1.58.01ZM10.7-13.66l1.84-1.79c.45-.44.45-1.16.01-1.6l-1.82-1.82c-.43-.43-1.14-.44-1.58-.01l-1.84,1.79c-.45.44-.45,1.16-.01,1.6l1.82,1.82c.43.43,1.14.44,1.58.01ZM10.7-64.18l1.84-1.79c.45-.44.45-1.16.01-1.6l-1.82-1.82c-.43-.43-1.14-.44-1.58-.01l-1.84,1.79c-.45.44-.45,1.16-.01,1.6l1.82,1.82c.43.43,1.14.44,1.58.01ZM10.7-38.92l1.84-1.79c.45-.44.45-1.16.01-1.6l-1.82-1.82c-.43-.43-1.14-.44-1.58-.01l-1.84,1.79c-.45.44-.45,1.16-.01,1.6l1.82,1.82c.43.43,1.14.44,1.58.01ZM10.7-13.66l1.84-1.79c.45-.44.45-1.16.01-1.6l-1.82-1.82c-.43-.43-1.14-.44-1.58-.01l-1.84,1.79c-.45.44-.45,1.16-.01,1.6l1.82,1.82c.43.43,1.14.44,1.58.01ZM10.7,11.59l1.84-1.79c.45-.44.45-1.16.01-1.6l-1.82-1.82c-.43-.44-1.14-.44-1.58-.01l-1.84,1.79c-.45.44-.45,1.16-.01,1.6l1.82,1.82c.43.44,1.14.44,1.58.01ZM10.7,36.85l1.84-1.79c.45-.44.45-1.16.01-1.6l-1.82-1.82c-.43-.44-1.14-.44-1.58-.01l-1.84,1.79c-.45.44-.45,1.16-.01,1.6l1.82,1.82c.43.44,1.14.44,1.58.01ZM10.7,36.85l1.84-1.79c.45-.44.45-1.16.01-1.6l-1.82-1.82c-.43-.44-1.14-.44-1.58-.01l-1.84,1.79c-.45.44-.45,1.16-.01,1.6l1.82,1.82c.43.44,1.14.44,1.58.01ZM10.7,11.59l1.84-1.79c.45-.44.45-1.16.01-1.6l-1.82-1.82c-.43-.44-1.14-.44-1.58-.01l-1.84,1.79c-.45.44-.45,1.16-.01,1.6l1.82,1.82c.43.44,1.14.44,1.58.01ZM10.7-13.66l1.84-1.79c.45-.44.45-1.16.01-1.6l-1.82-1.82c-.43-.43-1.14-.44-1.58-.01l-1.84,1.79c-.45.44-.45,1.16-.01,1.6l1.82,1.82c.43.43,1.14.44,1.58.01ZM10.7-38.92l1.84-1.79c.45-.44.45-1.16.01-1.6l-1.82-1.82c-.43-.43-1.14-.44-1.58-.01l-1.84,1.79c-.45.44-.45,1.16-.01,1.6l1.82,1.82c.43.43,1.14.44,1.58.01ZM10.7-64.18l1.84-1.79c.45-.44.45-1.16.01-1.6l-1.82-1.82c-.43-.43-1.14-.44-1.58-.01l-1.84,1.79c-.45.44-.45,1.16-.01,1.6l1.82,1.82c.43.43,1.14.44,1.58.01ZM10.7-64.18l1.84-1.79c.45-.44.45-1.16.01-1.6l-1.82-1.82c-.43-.43-1.14-.44-1.58-.01l-1.84,1.79c-.45.44-.45,1.16-.01,1.6l1.82,1.82c.43.43,1.14.44,1.58.01ZM10.7-38.92l1.84-1.79c.45-.44.45-1.16.01-1.6l-1.82-1.82c-.43-.43-1.14-.44-1.58-.01l-1.84,1.79c-.45.44-.45,1.16-.01,1.6l1.82,1.82c.43.43,1.14.44,1.58.01ZM10.7-13.66l1.84-1.79c.45-.44.45-1.16.01-1.6l-1.82-1.82c-.43-.43-1.14-.44-1.58-.01l-1.84,1.79c-.45.44-.45,1.16-.01,1.6l1.82,1.82c.43.43,1.14.44,1.58.01ZM10.7,11.59l1.84-1.79c.45-.44.45-1.16.01-1.6l-1.82-1.82c-.43-.44-1.14-.44-1.58-.01l-1.84,1.79c-.45.44-.45,1.16-.01,1.6l1.82,1.82c.43.44,1.14.44,1.58.01ZM10.7,36.85l1.84-1.79c.45-.44.45-1.16.01-1.6l-1.82-1.82c-.43-.44-1.14-.44-1.58-.01l-1.84,1.79c-.45.44-.45,1.16-.01,1.6l1.82,1.82c.43.44,1.14.44,1.58.01ZM10.7,62.11l1.84-1.79c.45-.44.45-1.16.01-1.6l-1.82-1.82c-.43-.43-1.14-.44-1.58-.01l-1.84,1.79c-.45.44-.45,1.16-.01,1.6l1.82,1.82c.43.43,1.14.44,1.58.01ZM10.7,87.37l1.84-1.79c.45-.44.45-1.16.01-1.6l-1.82-1.82c-.43-.43-1.14-.44-1.58-.01l-1.84,1.79c-.45.44-.45,1.16-.01,1.6l1.82,1.82c.43.43,1.14.44,1.58.01ZM10.7,87.37l1.84-1.79c.45-.44.45-1.16.01-1.6l-1.82-1.82c-.43-.43-1.14-.44-1.58-.01l-1.84,1.79c-.45.44-.45,1.16-.01,1.6l1.82,1.82c.43.43,1.14.44,1.58.01ZM10.7,62.11l1.84-1.79c.45-.44.45-1.16.01-1.6l-1.82-1.82c-.43-.43-1.14-.44-1.58-.01l-1.84,1.79c-.45.44-.45,1.16-.01,1.6l1.82,1.82c.43.43,1.14.44,1.58.01ZM10.7,36.85l1.84-1.79c.45-.44.45-1.16.01-1.6l-1.82-1.82c-.43-.44-1.14-.44-1.58-.01l-1.84,1.79c-.45.44-.45,1.16-.01,1.6l1.82,1.82c.43.44,1.14.44,1.58.01ZM10.7,11.59l1.84-1.79c.45-.44.45-1.16.01-1.6l-1.82-1.82c-.43-.44-1.14-.44-1.58-.01l-1.84,1.79c-.45.44-.45,1.16-.01,1.6l1.82,1.82c.43.44,1.14.44,1.58.01ZM10.7-13.66l1.84-1.79c.45-.44.45-1.16.01-1.6l-1.82-1.82c-.43-.43-1.14-.44-1.58-.01l-1.84,1.79c-.45.44-.45,1.16-.01,1.6l1.82,1.82c.43.43,1.14.44,1.58.01ZM10.7-38.92l1.84-1.79c.45-.44.45-1.16.01-1.6l-1.82-1.82c-.43-.43-1.14-.44-1.58-.01l-1.84,1.79c-.45.44-.45,1.16-.01,1.6l1.82,1.82c.43.43,1.14.44,1.58.01ZM10.7-64.18l1.84-1.79c.45-.44.45-1.16.01-1.6l-1.82-1.82c-.43-.43-1.14-.44-1.58-.01l-1.84,1.79c-.45.44-.45,1.16-.01,1.6l1.82,1.82c.43.43,1.14.44,1.58.01ZM20.06-76.75H-.33v205.25h20.39V-76.75ZM8.98,125.24l-1.82-1.82c-.44-.44-.44-1.16.01-1.6l1.84-1.79c.44-.43,1.14-.42,1.58.01l1.82,1.82c.44.44.44,1.16-.01,1.6l-1.84,1.79c-.44.43-1.14.42-1.58-.01ZM8.98,99.98l-1.82-1.82c-.44-.44-.44-1.16.01-1.6l1.84-1.79c.44-.43,1.14-.42,1.58.01l1.82,1.82c.44.44.44,1.16-.01,1.6l-1.84,1.79c-.44.43-1.14.42-1.58-.01ZM8.98,74.73l-1.82-1.82c-.44-.44-.44-1.16.01-1.6l1.84-1.79c.44-.43,1.14-.42,1.58.01l1.82,1.82c.44.44.44,1.16-.01,1.6l-1.84,1.79c-.44.43-1.14.42-1.58-.01ZM8.98,49.47l-1.82-1.82c-.44-.44-.44-1.16.01-1.6l1.84-1.79c.44-.43,1.14-.42,1.58.01l1.82,1.82c.44.44.44,1.16-.01,1.6l-1.84,1.79c-.44.43-1.14.42-1.58-.01ZM8.98,24.21l-1.82-1.82c-.44-.44-.44-1.16.01-1.6l1.84-1.79c.44-.43,1.14-.42,1.58.01l1.82,1.82c.44.44.44,1.16-.01,1.6l-1.84,1.79c-.44.43-1.14.42-1.58-.01ZM8.98-1.05l-1.82-1.82c-.44-.44-.44-1.16.01-1.6l1.84-1.79c.44-.43,1.14-.42,1.58.01l1.82,1.82c.44.44.44,1.16-.01,1.6l-1.84,1.79c-.44.43-1.14.42-1.58-.01ZM8.98-26.3l-1.82-1.82c-.44-.44-.44-1.16.01-1.6l1.84-1.79c.44-.43,1.14-.42,1.58.01l1.82,1.82c.44.44.44,1.16-.01,1.6l-1.84,1.79c-.44.43-1.14.42-1.58-.01ZM8.98-51.56l-1.82-1.82c-.44-.44-.44-1.16.01-1.6l1.84-1.79c.44-.43,1.14-.42,1.58.01l1.82,1.82c.44.44.44,1.16-.01,1.6l-1.84,1.79c-.44.43-1.14.42-1.58-.01ZM3.06-62.84c-.23-1.3-.34-2.63-.33-4,.01-1.36.14-2.69.39-3.98.28-1.46,1.44-2.6,2.91-2.86,1.29-.23,2.62-.34,3.97-.33,1.34.01,2.66.14,3.93.38,1.47.28,2.61,1.44,2.87,2.9.23,1.29.34,2.63.33,3.99,0,1.34-.14,2.65-.38,3.93-.19,1-.78,1.84-1.61,2.36-.38.25-.82.42-1.29.5-1.34.24-2.71.37-4.12.36-1.29,0-2.56-.13-3.79-.36-.51-.09-.99-.3-1.4-.58-.77-.54-1.31-1.36-1.48-2.32ZM3.06-37.58c-.23-1.3-.34-2.63-.33-4,.01-1.36.14-2.69.39-3.98.18-.92.7-1.71,1.43-2.24.43-.31.93-.53,1.48-.62,1.29-.23,2.62-.34,3.97-.33,1.34,0,2.66.14,3.93.38.44.08.84.24,1.21.47.86.53,1.47,1.41,1.66,2.44.23,1.29.34,2.63.33,3.99,0,1.34-.14,2.66-.38,3.93-.19,1-.78,1.84-1.6,2.36-.39.24-.82.42-1.29.5-1.34.24-2.71.37-4.12.36-1.29,0-2.56-.13-3.79-.36-.51-.09-.99-.29-1.4-.58-.77-.54-1.31-1.36-1.48-2.32ZM3.06-12.32c-.23-1.3-.34-2.63-.33-4,.01-1.36.14-2.69.39-3.98.18-.92.7-1.71,1.43-2.24.43-.31.93-.53,1.48-.62,1.29-.23,2.62-.34,3.97-.33,1.34,0,2.66.14,3.93.38.44.08.84.24,1.21.47h0c.86.53,1.47,1.41,1.66,2.44.23,1.29.34,2.63.33,3.99,0,1.34-.14,2.66-.38,3.93-.19,1-.78,1.84-1.6,2.36-.39.24-.82.42-1.29.5-1.34.24-2.71.37-4.12.36-1.29,0-2.56-.13-3.79-.36-.51-.09-.99-.29-1.4-.58-.77-.54-1.31-1.36-1.48-2.32ZM3.06,12.93c-.23-1.3-.34-2.63-.33-4,.01-1.36.14-2.69.39-3.98.18-.92.7-1.71,1.43-2.24.43-.31.93-.53,1.48-.62,1.29-.23,2.62-.34,3.97-.33,1.34,0,2.66.14,3.93.38.44.08.84.24,1.21.47.86.53,1.47,1.41,1.66,2.44.23,1.3.34,2.63.33,3.99,0,1.34-.14,2.66-.38,3.93-.19.99-.78,1.84-1.61,2.36-.38.24-.82.42-1.29.5-1.34.24-2.71.37-4.12.36-1.29,0-2.56-.13-3.79-.36-.51-.09-.99-.29-1.4-.58-.77-.54-1.31-1.36-1.48-2.32ZM3.06,38.19c-.23-1.3-.34-2.63-.33-4,.01-1.36.14-2.69.39-3.98.18-.92.7-1.71,1.43-2.24.43-.31.93-.53,1.48-.62,1.29-.23,2.62-.34,3.97-.33,1.34.01,2.66.14,3.93.38.44.08.84.24,1.21.47.86.53,1.47,1.41,1.66,2.44.23,1.29.34,2.63.33,3.99,0,1.34-.14,2.66-.38,3.93-.19,1-.78,1.84-1.61,2.36-.38.25-.82.42-1.29.5-1.34.24-2.71.37-4.12.36-1.29-.01-2.56-.13-3.79-.36-.51-.09-.99-.3-1.4-.58-.77-.54-1.31-1.36-1.48-2.32ZM3.06,63.45c-.23-1.3-.34-2.63-.33-4,.01-1.36.14-2.69.39-3.98.18-.92.7-1.71,1.43-2.24.43-.31.93-.53,1.48-.62,1.29-.23,2.62-.34,3.97-.33,1.34.01,2.66.14,3.93.38.44.08.84.24,1.21.47.86.53,1.47,1.41,1.66,2.44.23,1.29.34,2.63.33,3.99,0,1.34-.14,2.65-.38,3.93-.19,1-.78,1.84-1.61,2.36-.38.25-.82.42-1.29.5-1.34.24-2.71.37-4.12.36-1.29,0-2.56-.13-3.79-.36-.51-.09-.99-.3-1.4-.58-.77-.54-1.31-1.36-1.48-2.32ZM3.06,88.71c-.23-1.3-.34-2.63-.33-4,.01-1.36.14-2.69.39-3.98.18-.92.7-1.71,1.43-2.24.43-.31.93-.53,1.48-.62,1.29-.23,2.62-.34,3.97-.33,1.34,0,2.66.14,3.93.38.44.08.84.24,1.21.47.86.53,1.47,1.4,1.66,2.44.23,1.29.34,2.63.33,3.99,0,1.34-.14,2.66-.38,3.93-.19,1-.78,1.84-1.6,2.36-.39.24-.82.42-1.29.5-1.34.24-2.71.37-4.12.36-1.29,0-2.56-.13-3.79-.36-.51-.09-.99-.3-1.4-.58-.77-.54-1.31-1.36-1.48-2.32ZM3.06,113.97c-.23-1.3-.34-2.63-.33-4,.01-1.36.14-2.69.39-3.98.18-.92.7-1.71,1.43-2.24.43-.31.93-.53,1.48-.62,1.29-.23,2.62-.34,3.97-.33,1.34,0,2.66.14,3.93.38.44.08.84.24,1.21.47.86.53,1.47,1.4,1.66,2.44.23,1.29.34,2.63.33,3.99,0,1.34-.14,2.66-.38,3.93-.19.99-.78,1.84-1.6,2.36-.39.24-.82.42-1.29.5-1.34.24-2.71.37-4.12.36-1.29,0-2.56-.13-3.79-.36-.51-.09-.99-.3-1.4-.58-.77-.54-1.31-1.36-1.48-2.32ZM12.54,110.83c.45-.44.45-1.16.01-1.6l-1.82-1.82c-.43-.43-1.14-.44-1.58-.01l-1.84,1.79c-.45.44-.45,1.16-.01,1.6l1.82,1.82c.43.43,1.14.44,1.58.01l1.84-1.79ZM12.54,85.57c.45-.44.45-1.16.01-1.6l-1.82-1.82c-.43-.43-1.14-.44-1.58-.01l-1.84,1.79c-.45.44-.45,1.16-.01,1.6l1.82,1.82c.43.43,1.14.44,1.58.01l1.84-1.79ZM12.54,60.32c.45-.44.45-1.16.01-1.6l-1.82-1.82c-.43-.43-1.14-.44-1.58-.01l-1.84,1.79c-.45.44-.45,1.16-.01,1.6l1.82,1.82c.43.43,1.14.44,1.58.01l1.84-1.79ZM12.54,35.06c.45-.44.45-1.16.01-1.6l-1.82-1.82c-.43-.44-1.14-.44-1.58-.01l-1.84,1.79c-.45.44-.45,1.16-.01,1.6l1.82,1.82c.43.44,1.14.44,1.58.01l1.84-1.79ZM12.54,9.8c.45-.44.45-1.16.01-1.6l-1.82-1.82c-.43-.44-1.14-.44-1.58-.01l-1.84,1.79c-.45.44-.45,1.16-.01,1.6l1.82,1.82c.43.44,1.14.44,1.58.01l1.84-1.79ZM12.54-15.46c.45-.44.45-1.16.01-1.6l-1.82-1.82c-.43-.43-1.14-.44-1.58-.01l-1.84,1.79c-.45.44-.45,1.16-.01,1.6l1.82,1.82c.43.43,1.14.44,1.58.01l1.84-1.79ZM12.54-40.71c.45-.44.45-1.16.01-1.6l-1.82-1.82c-.43-.43-1.14-.44-1.58-.01l-1.84,1.79c-.45.44-.45,1.16-.01,1.6l1.82,1.82c.43.43,1.14.44,1.58.01l1.84-1.79ZM12.54-65.97c.45-.44.45-1.16.01-1.6l-1.82-1.82c-.43-.43-1.14-.44-1.58-.01l-1.84,1.79c-.45.44-.45,1.16-.01,1.6l1.82,1.82c.43.43,1.14.44,1.58.01l1.84-1.79ZM10.7-64.18l1.84-1.79c.45-.44.45-1.16.01-1.6l-1.82-1.82c-.43-.43-1.14-.44-1.58-.01l-1.84,1.79c-.45.44-.45,1.16-.01,1.6l1.82,1.82c.43.43,1.14.44,1.58.01ZM10.7-38.92l1.84-1.79c.45-.44.45-1.16.01-1.6l-1.82-1.82c-.43-.43-1.14-.44-1.58-.01l-1.84,1.79c-.45.44-.45,1.16-.01,1.6l1.82,1.82c.43.43,1.14.44,1.58.01ZM10.7-13.66l1.84-1.79c.45-.44.45-1.16.01-1.6l-1.82-1.82c-.43-.43-1.14-.44-1.58-.01l-1.84,1.79c-.45.44-.45,1.16-.01,1.6l1.82,1.82c.43.43,1.14.44,1.58.01ZM10.7,11.59l1.84-1.79c.45-.44.45-1.16.01-1.6l-1.82-1.82c-.43-.44-1.14-.44-1.58-.01l-1.84,1.79c-.45.44-.45,1.16-.01,1.6l1.82,1.82c.43.44,1.14.44,1.58.01ZM10.7,36.85l1.84-1.79c.45-.44.45-1.16.01-1.6l-1.82-1.82c-.43-.44-1.14-.44-1.58-.01l-1.84,1.79c-.45.44-.45,1.16-.01,1.6l1.82,1.82c.43.44,1.14.44,1.58.01ZM10.7,62.11l1.84-1.79c.45-.44.45-1.16.01-1.6l-1.82-1.82c-.43-.43-1.14-.44-1.58-.01l-1.84,1.79c-.45.44-.45,1.16-.01,1.6l1.82,1.82c.43.43,1.14.44,1.58.01ZM10.7,62.11l1.84-1.79c.45-.44.45-1.16.01-1.6l-1.82-1.82c-.43-.43-1.14-.44-1.58-.01l-1.84,1.79c-.45.44-.45,1.16-.01,1.6l1.82,1.82c.43.43,1.14.44,1.58.01ZM10.7,36.85l1.84-1.79c.45-.44.45-1.16.01-1.6l-1.82-1.82c-.43-.44-1.14-.44-1.58-.01l-1.84,1.79c-.45.44-.45,1.16-.01,1.6l1.82,1.82c.43.44,1.14.44,1.58.01ZM10.7,11.59l1.84-1.79c.45-.44.45-1.16.01-1.6l-1.82-1.82c-.43-.44-1.14-.44-1.58-.01l-1.84,1.79c-.45.44-.45,1.16-.01,1.6l1.82,1.82c.43.44,1.14.44,1.58.01ZM10.7-13.66l1.84-1.79c.45-.44.45-1.16.01-1.6l-1.82-1.82c-.43-.43-1.14-.44-1.58-.01l-1.84,1.79c-.45.44-.45,1.16-.01,1.6l1.82,1.82c.43.43,1.14.44,1.58.01ZM10.7-38.92l1.84-1.79c.45-.44.45-1.16.01-1.6l-1.82-1.82c-.43-.43-1.14-.44-1.58-.01l-1.84,1.79c-.45.44-.45,1.16-.01,1.6l1.82,1.82c.43.43,1.14.44,1.58.01ZM10.7-64.18l1.84-1.79c.45-.44.45-1.16.01-1.6l-1.82-1.82c-.43-.43-1.14-.44-1.58-.01l-1.84,1.79c-.45.44-.45,1.16-.01,1.6l1.82,1.82c.43.43,1.14.44,1.58.01ZM10.7-38.92l1.84-1.79c.45-.44.45-1.16.01-1.6l-1.82-1.82c-.43-.43-1.14-.44-1.58-.01l-1.84,1.79c-.45.44-.45,1.16-.01,1.6l1.82,1.82c.43.43,1.14.44,1.58.01ZM10.7-13.66l1.84-1.79c.45-.44.45-1.16.01-1.6l-1.82-1.82c-.43-.43-1.14-.44-1.58-.01l-1.84,1.79c-.45.44-.45,1.16-.01,1.6l1.82,1.82c.43.43,1.14.44,1.58.01ZM10.7,11.59l1.84-1.79c.45-.44.45-1.16.01-1.6l-1.82-1.82c-.43-.44-1.14-.44-1.58-.01l-1.84,1.79c-.45.44-.45,1.16-.01,1.6l1.82,1.82c.43.44,1.14.44,1.58.01ZM10.7,36.85l1.84-1.79c.45-.44.45-1.16.01-1.6l-1.82-1.82c-.43-.44-1.14-.44-1.58-.01l-1.84,1.79c-.45.44-.45,1.16-.01,1.6l1.82,1.82c.43.44,1.14.44,1.58.01ZM10.7,36.85l1.84-1.79c.45-.44.45-1.16.01-1.6l-1.82-1.82c-.43-.44-1.14-.44-1.58-.01l-1.84,1.79c-.45.44-.45,1.16-.01,1.6l1.82,1.82c.43.44,1.14.44,1.58.01ZM10.7,11.59l1.84-1.79c.45-.44.45-1.16.01-1.6l-1.82-1.82c-.43-.44-1.14-.44-1.58-.01l-1.84,1.79c-.45.44-.45,1.16-.01,1.6l1.82,1.82c.43.44,1.14.44,1.58.01ZM10.7-13.66l1.84-1.79c.45-.44.45-1.16.01-1.6l-1.82-1.82c-.43-.43-1.14-.44-1.58-.01l-1.84,1.79c-.45.44-.45,1.16-.01,1.6l1.82,1.82c.43.43,1.14.44,1.58.01ZM10.7-38.92l1.84-1.79c.45-.44.45-1.16.01-1.6l-1.82-1.82c-.43-.43-1.14-.44-1.58-.01l-1.84,1.79c-.45.44-.45,1.16-.01,1.6l1.82,1.82c.43.43,1.14.44,1.58.01ZM10.7,11.59l1.84-1.79c.45-.44.45-1.16.01-1.6l-1.82-1.82c-.43-.44-1.14-.44-1.58-.01l-1.84,1.79c-.45.44-.45,1.16-.01,1.6l1.82,1.82c.43.44,1.14.44,1.58.01ZM10.7,36.85l1.84-1.79c.45-.44.45-1.16.01-1.6l-1.82-1.82c-.43-.44-1.14-.44-1.58-.01l-1.84,1.79c-.45.44-.45,1.16-.01,1.6l1.82,1.82c.43.44,1.14.44,1.58.01ZM10.7,36.85l1.84-1.79c.45-.44.45-1.16.01-1.6l-1.82-1.82c-.43-.44-1.14-.44-1.58-.01l-1.84,1.79c-.45.44-.45,1.16-.01,1.6l1.82,1.82c.43.44,1.14.44,1.58.01ZM10.7,11.59l1.84-1.79c.45-.44.45-1.16.01-1.6l-1.82-1.82c-.43-.44-1.14-.44-1.58-.01l-1.84,1.79c-.45.44-.45,1.16-.01,1.6l1.82,1.82c.43.44,1.14.44,1.58.01Z"/></svg>